<?xml version="1.0" encoding="UTF-8" standalone="no"?>
<!DOCTYPE svg PUBLIC "-//W3C//DTD SVG 1.1//EN"
 "http://www.w3.org/Graphics/SVG/1.1/DTD/svg11.dtd">
<!-- Generated by graphviz version 12.2.1 (20241206.2353)
 -->
<!-- Pages: 1 -->
<svg width="2826pt" height="236pt"
 viewBox="0.00 0.00 2825.75 236.00" xmlns="http://www.w3.org/2000/svg" xmlns:xlink="http://www.w3.org/1999/xlink">
<g id="graph0" class="graph" transform="scale(1 1) rotate(0) translate(4 232)">
<polygon fill="white" stroke="none" points="-4,4 -4,-232 2821.75,-232 2821.75,4 -4,4"/>
<!-- 2781973837840 -->
<g id="node1" class="node">
<title>2781973837840</title>
<polygon fill="none" stroke="black" points="595.5,-82.5 595.5,-118.5 819.75,-118.5 819.75,-82.5 595.5,-82.5"/>
<text text-anchor="middle" x="641.38" y="-95.7" font-family="Times New Roman,serif" font-size="14.00">x1w1 + x2w2</text>
<polyline fill="none" stroke="black" points="687.25,-83 687.25,-118.5"/>
<text text-anchor="middle" x="721.12" y="-95.7" font-family="Times New Roman,serif" font-size="14.00">data: &#45;6.0</text>
<polyline fill="none" stroke="black" points="755,-83 755,-118.5"/>
<text text-anchor="middle" x="787.38" y="-95.7" font-family="Times New Roman,serif" font-size="14.00">grad: 0.5</text>
</g>
<!-- 2781973837136+ -->
<g id="node26" class="node">
<title>2781973837136+</title>
<ellipse fill="none" stroke="black" cx="882.75" cy="-127.5" rx="27" ry="18"/>
<text text-anchor="middle" x="882.75" y="-122.45" font-family="Times New Roman,serif" font-size="14.00">+</text>
</g>
<!-- 2781973837840&#45;&gt;2781973837136+ -->
<g id="edge20" class="edge">
<title>2781973837840&#45;&gt;2781973837136+</title>
<path fill="none" stroke="black" d="M820.23,-117.9C828.9,-119.26 837.2,-120.55 844.75,-121.73"/>
<polygon fill="black" stroke="black" points="844.02,-125.16 854.44,-123.24 845.1,-118.24 844.02,-125.16"/>
</g>
<!-- 2781973837840+ -->
<g id="node2" class="node">
<title>2781973837840+</title>
<ellipse fill="none" stroke="black" cx="532.5" cy="-100.5" rx="27" ry="18"/>
<text text-anchor="middle" x="532.5" y="-95.45" font-family="Times New Roman,serif" font-size="14.00">+</text>
</g>
<!-- 2781973837840+&#45;&gt;2781973837840 -->
<g id="edge1" class="edge">
<title>2781973837840+&#45;&gt;2781973837840</title>
<path fill="none" stroke="black" d="M559.79,-100.5C566.91,-100.5 575.11,-100.5 583.91,-100.5"/>
<polygon fill="black" stroke="black" points="583.84,-104 593.84,-100.5 583.84,-97 583.84,-104"/>
</g>
<!-- 2781965773840 -->
<g id="node3" class="node">
<title>2781965773840</title>
<polygon fill="none" stroke="black" points="2.25,-165.5 2.25,-201.5 162.75,-201.5 162.75,-165.5 2.25,-165.5"/>
<text text-anchor="middle" x="18.5" y="-178.7" font-family="Times New Roman,serif" font-size="14.00">w2</text>
<polyline fill="none" stroke="black" points="34.75,-166 34.75,-201.5"/>
<text text-anchor="middle" x="66.38" y="-178.7" font-family="Times New Roman,serif" font-size="14.00">data: 1.0</text>
<polyline fill="none" stroke="black" points="98,-166 98,-201.5"/>
<text text-anchor="middle" x="130.38" y="-178.7" font-family="Times New Roman,serif" font-size="14.00">grad: 0.0</text>
</g>
<!-- 2781973838928* -->
<g id="node7" class="node">
<title>2781973838928*</title>
<ellipse fill="none" stroke="black" cx="228" cy="-128.5" rx="27" ry="18"/>
<text text-anchor="middle" x="228" y="-123.45" font-family="Times New Roman,serif" font-size="14.00">*</text>
</g>
<!-- 2781965773840&#45;&gt;2781973838928* -->
<g id="edge22" class="edge">
<title>2781965773840&#45;&gt;2781973838928*</title>
<path fill="none" stroke="black" d="M141.65,-165.06C149.54,-162.32 157.5,-159.43 165,-156.5 174.91,-152.63 185.53,-148.02 195.12,-143.66"/>
<polygon fill="black" stroke="black" points="196.44,-146.91 204.05,-139.54 193.51,-140.55 196.44,-146.91"/>
</g>
<!-- 2781973958160 -->
<g id="node4" class="node">
<title>2781973958160</title>
<polygon fill="none" stroke="black" points="1878,-108.5 1878,-144.5 2070.75,-144.5 2070.75,-108.5 1878,-108.5"/>
<text text-anchor="middle" x="1887.88" y="-121.7" font-family="Times New Roman,serif" font-size="14.00"> </text>
<polyline fill="none" stroke="black" points="1897.75,-109 1897.75,-144.5"/>
<text text-anchor="middle" x="1939.5" y="-121.7" font-family="Times New Roman,serif" font-size="14.00">data: 6.8284</text>
<polyline fill="none" stroke="black" points="1981.25,-109 1981.25,-144.5"/>
<text text-anchor="middle" x="2026" y="-121.7" font-family="Times New Roman,serif" font-size="14.00">grad: &#45;0.1036</text>
</g>
<!-- 2781973834128**&#45;1.0 -->
<g id="node22" class="node">
<title>2781973834128**&#45;1.0</title>
<ellipse fill="none" stroke="black" cx="2200.88" cy="-126.5" rx="34.97" ry="18"/>
<text text-anchor="middle" x="2200.88" y="-121.45" font-family="Times New Roman,serif" font-size="14.00">**&#45;1.0</text>
</g>
<!-- 2781973958160&#45;&gt;2781973834128**&#45;1.0 -->
<g id="edge17" class="edge">
<title>2781973958160&#45;&gt;2781973834128**&#45;1.0</title>
<path fill="none" stroke="black" d="M2071.23,-126.5C2100.12,-126.5 2130.48,-126.5 2154.45,-126.5"/>
<polygon fill="black" stroke="black" points="2154.15,-130 2164.15,-126.5 2154.15,-123 2154.15,-130"/>
</g>
<!-- 2781973958160+ -->
<g id="node5" class="node">
<title>2781973958160+</title>
<ellipse fill="none" stroke="black" cx="1815" cy="-126.5" rx="27" ry="18"/>
<text text-anchor="middle" x="1815" y="-121.45" font-family="Times New Roman,serif" font-size="14.00">+</text>
</g>
<!-- 2781973958160+&#45;&gt;2781973958160 -->
<g id="edge2" class="edge">
<title>2781973958160+&#45;&gt;2781973958160</title>
<path fill="none" stroke="black" d="M1842.34,-126.5C1849.48,-126.5 1857.67,-126.5 1866.39,-126.5"/>
<polygon fill="black" stroke="black" points="1866.17,-130 1876.17,-126.5 1866.17,-123 1866.17,-130"/>
</g>
<!-- 2781973838928 -->
<g id="node6" class="node">
<title>2781973838928</title>
<polygon fill="none" stroke="black" points="293.25,-110.5 293.25,-146.5 467.25,-146.5 467.25,-110.5 293.25,-110.5"/>
<text text-anchor="middle" x="316.25" y="-123.7" font-family="Times New Roman,serif" font-size="14.00">x2w2</text>
<polyline fill="none" stroke="black" points="339.25,-111 339.25,-146.5"/>
<text text-anchor="middle" x="370.88" y="-123.7" font-family="Times New Roman,serif" font-size="14.00">data: 0.0</text>
<polyline fill="none" stroke="black" points="402.5,-111 402.5,-146.5"/>
<text text-anchor="middle" x="434.88" y="-123.7" font-family="Times New Roman,serif" font-size="14.00">grad: 0.5</text>
</g>
<!-- 2781973838928&#45;&gt;2781973837840+ -->
<g id="edge11" class="edge">
<title>2781973838928&#45;&gt;2781973837840+</title>
<path fill="none" stroke="black" d="M467.34,-112.46C477.08,-110.64 486.57,-108.87 495.13,-107.28"/>
<polygon fill="black" stroke="black" points="495.49,-110.77 504.68,-105.5 494.21,-103.89 495.49,-110.77"/>
</g>
<!-- 2781973838928*&#45;&gt;2781973838928 -->
<g id="edge3" class="edge">
<title>2781973838928*&#45;&gt;2781973838928</title>
<path fill="none" stroke="black" d="M255.17,-128.5C262.97,-128.5 272.01,-128.5 281.59,-128.5"/>
<polygon fill="black" stroke="black" points="281.53,-132 291.53,-128.5 281.53,-125 281.53,-132"/>
</g>
<!-- 2781965776464 -->
<g id="node8" class="node">
<title>2781965776464</title>
<polygon fill="none" stroke="black" points="291,-55.5 291,-91.5 469.5,-91.5 469.5,-55.5 291,-55.5"/>
<text text-anchor="middle" x="314" y="-68.7" font-family="Times New Roman,serif" font-size="14.00">x1w1</text>
<polyline fill="none" stroke="black" points="337,-56 337,-91.5"/>
<text text-anchor="middle" x="370.88" y="-68.7" font-family="Times New Roman,serif" font-size="14.00">data: &#45;6.0</text>
<polyline fill="none" stroke="black" points="404.75,-56 404.75,-91.5"/>
<text text-anchor="middle" x="437.12" y="-68.7" font-family="Times New Roman,serif" font-size="14.00">grad: 0.5</text>
</g>
<!-- 2781965776464&#45;&gt;2781973837840+ -->
<g id="edge25" class="edge">
<title>2781965776464&#45;&gt;2781973837840+</title>
<path fill="none" stroke="black" d="M469.95,-89.44C478.73,-91.02 487.25,-92.55 495.01,-93.94"/>
<polygon fill="black" stroke="black" points="494.2,-97.35 504.66,-95.68 495.44,-90.46 494.2,-97.35"/>
</g>
<!-- 2781965776464* -->
<g id="node9" class="node">
<title>2781965776464*</title>
<ellipse fill="none" stroke="black" cx="228" cy="-73.5" rx="27" ry="18"/>
<text text-anchor="middle" x="228" y="-68.45" font-family="Times New Roman,serif" font-size="14.00">*</text>
</g>
<!-- 2781965776464*&#45;&gt;2781965776464 -->
<g id="edge4" class="edge">
<title>2781965776464*&#45;&gt;2781965776464</title>
<path fill="none" stroke="black" d="M255.17,-73.5C262.38,-73.5 270.66,-73.5 279.45,-73.5"/>
<polygon fill="black" stroke="black" points="279.29,-77 289.29,-73.5 279.29,-70 279.29,-77"/>
</g>
<!-- 2781973838416 -->
<g id="node10" class="node">
<title>2781973838416</title>
<polygon fill="none" stroke="black" points="954.75,-164.5 954.75,-200.5 1125.75,-200.5 1125.75,-164.5 954.75,-164.5"/>
<text text-anchor="middle" x="966.12" y="-177.7" font-family="Times New Roman,serif" font-size="14.00">2</text>
<polyline fill="none" stroke="black" points="977.5,-165 977.5,-200.5"/>
<text text-anchor="middle" x="1009.12" y="-177.7" font-family="Times New Roman,serif" font-size="14.00">data: 2.0</text>
<polyline fill="none" stroke="black" points="1040.75,-165 1040.75,-200.5"/>
<text text-anchor="middle" x="1083.25" y="-177.7" font-family="Times New Roman,serif" font-size="14.00">grad: 0.2203</text>
</g>
<!-- 2781973838672* -->
<g id="node24" class="node">
<title>2781973838672*</title>
<ellipse fill="none" stroke="black" cx="1197.75" cy="-154.5" rx="27" ry="18"/>
<text text-anchor="middle" x="1197.75" y="-149.45" font-family="Times New Roman,serif" font-size="14.00">*</text>
</g>
<!-- 2781973838416&#45;&gt;2781973838672* -->
<g id="edge12" class="edge">
<title>2781973838416&#45;&gt;2781973838672*</title>
<path fill="none" stroke="black" d="M1125.83,-167.27C1137.83,-165.11 1149.62,-162.99 1160.03,-161.11"/>
<polygon fill="black" stroke="black" points="1160.43,-164.6 1169.65,-159.38 1159.19,-157.71 1160.43,-164.6"/>
</g>
<!-- 2782241737872 -->
<g id="node11" class="node">
<title>2782241737872</title>
<polygon fill="none" stroke="black" points="1.5,-55.5 1.5,-91.5 163.5,-91.5 163.5,-55.5 1.5,-55.5"/>
<text text-anchor="middle" x="16.25" y="-68.7" font-family="Times New Roman,serif" font-size="14.00">x1</text>
<polyline fill="none" stroke="black" points="31,-56 31,-91.5"/>
<text text-anchor="middle" x="62.62" y="-68.7" font-family="Times New Roman,serif" font-size="14.00">data: 2.0</text>
<polyline fill="none" stroke="black" points="94.25,-56 94.25,-91.5"/>
<text text-anchor="middle" x="128.88" y="-68.7" font-family="Times New Roman,serif" font-size="14.00">grad: &#45;1.5</text>
</g>
<!-- 2782241737872&#45;&gt;2781965776464* -->
<g id="edge18" class="edge">
<title>2782241737872&#45;&gt;2781965776464*</title>
<path fill="none" stroke="black" d="M163.64,-73.5C172.51,-73.5 181.2,-73.5 189.17,-73.5"/>
<polygon fill="black" stroke="black" points="189.12,-77 199.12,-73.5 189.12,-70 189.12,-77"/>
</g>
<!-- 2781965769104 -->
<g id="node12" class="node">
<title>2781965769104</title>
<polygon fill="none" stroke="black" points="0,-0.5 0,-36.5 165,-36.5 165,-0.5 0,-0.5"/>
<text text-anchor="middle" x="16.25" y="-13.7" font-family="Times New Roman,serif" font-size="14.00">w1</text>
<polyline fill="none" stroke="black" points="32.5,-1 32.5,-36.5"/>
<text text-anchor="middle" x="66.38" y="-13.7" font-family="Times New Roman,serif" font-size="14.00">data: &#45;3.0</text>
<polyline fill="none" stroke="black" points="100.25,-1 100.25,-36.5"/>
<text text-anchor="middle" x="132.62" y="-13.7" font-family="Times New Roman,serif" font-size="14.00">grad: 1.0</text>
</g>
<!-- 2781965769104&#45;&gt;2781965776464* -->
<g id="edge24" class="edge">
<title>2781965769104&#45;&gt;2781965776464*</title>
<path fill="none" stroke="black" d="M138.95,-36.89C147.71,-39.98 156.63,-43.25 165,-46.5 174.78,-50.3 185.29,-54.74 194.82,-58.91"/>
<polygon fill="black" stroke="black" points="193.14,-61.99 203.7,-62.83 195.97,-55.59 193.14,-61.99"/>
</g>
<!-- 2781965773456 -->
<g id="node13" class="node">
<title>2781965773456</title>
<polygon fill="none" stroke="black" points="622.12,-137.5 622.12,-173.5 793.12,-173.5 793.12,-137.5 622.12,-137.5"/>
<text text-anchor="middle" x="633.5" y="-150.7" font-family="Times New Roman,serif" font-size="14.00">b</text>
<polyline fill="none" stroke="black" points="644.88,-138 644.88,-173.5"/>
<text text-anchor="middle" x="686.62" y="-150.7" font-family="Times New Roman,serif" font-size="14.00">data: 6.8814</text>
<polyline fill="none" stroke="black" points="728.38,-138 728.38,-173.5"/>
<text text-anchor="middle" x="760.75" y="-150.7" font-family="Times New Roman,serif" font-size="14.00">grad: 0.5</text>
</g>
<!-- 2781965773456&#45;&gt;2781973837136+ -->
<g id="edge14" class="edge">
<title>2781965773456&#45;&gt;2781973837136+</title>
<path fill="none" stroke="black" d="M793.41,-141.79C811.71,-138.83 830.11,-135.85 845.35,-133.39"/>
<polygon fill="black" stroke="black" points="845.52,-136.9 854.83,-131.85 844.4,-129.99 845.52,-136.9"/>
</g>
<!-- 2781973833936 -->
<g id="node14" class="node">
<title>2781973833936</title>
<polygon fill="none" stroke="black" points="1561.5,-136.5 1561.5,-172.5 1752,-172.5 1752,-136.5 1561.5,-136.5"/>
<text text-anchor="middle" x="1572.5" y="-149.7" font-family="Times New Roman,serif" font-size="14.00">e</text>
<polyline fill="none" stroke="black" points="1583.5,-137 1583.5,-172.5"/>
<text text-anchor="middle" x="1625.25" y="-149.7" font-family="Times New Roman,serif" font-size="14.00">data: 5.8284</text>
<polyline fill="none" stroke="black" points="1667,-137 1667,-172.5"/>
<text text-anchor="middle" x="1709.5" y="-149.7" font-family="Times New Roman,serif" font-size="14.00">grad: 0.0429</text>
</g>
<!-- 2781973833936&#45;&gt;2781973958160+ -->
<g id="edge19" class="edge">
<title>2781973833936&#45;&gt;2781973958160+</title>
<path fill="none" stroke="black" d="M1752.25,-137.57C1761.04,-135.99 1769.54,-134.47 1777.28,-133.08"/>
<polygon fill="black" stroke="black" points="1777.66,-136.57 1786.89,-131.36 1776.43,-129.68 1777.66,-136.57"/>
</g>
<!-- 2781973838736+ -->
<g id="node28" class="node">
<title>2781973838736+</title>
<ellipse fill="none" stroke="black" cx="1815" cy="-181.5" rx="27" ry="18"/>
<text text-anchor="middle" x="1815" y="-176.45" font-family="Times New Roman,serif" font-size="14.00">+</text>
</g>
<!-- 2781973833936&#45;&gt;2781973838736+ -->
<g id="edge26" class="edge">
<title>2781973833936&#45;&gt;2781973838736+</title>
<path fill="none" stroke="black" d="M1752.25,-170.83C1761.04,-172.35 1769.54,-173.82 1777.28,-175.15"/>
<polygon fill="black" stroke="black" points="1776.44,-178.56 1786.89,-176.81 1777.63,-171.66 1776.44,-178.56"/>
</g>
<!-- 2781973833936exp -->
<g id="node15" class="node">
<title>2781973833936exp</title>
<ellipse fill="none" stroke="black" cx="1498.5" cy="-154.5" rx="27" ry="18"/>
<text text-anchor="middle" x="1498.5" y="-149.45" font-family="Times New Roman,serif" font-size="14.00">exp</text>
</g>
<!-- 2781973833936exp&#45;&gt;2781973833936 -->
<g id="edge5" class="edge">
<title>2781973833936exp&#45;&gt;2781973833936</title>
<path fill="none" stroke="black" d="M1525.65,-154.5C1532.8,-154.5 1541.01,-154.5 1549.75,-154.5"/>
<polygon fill="black" stroke="black" points="1549.56,-158 1559.56,-154.5 1549.56,-151 1549.56,-158"/>
</g>
<!-- 2781965773008 -->
<g id="node16" class="node">
<title>2781965773008</title>
<polygon fill="none" stroke="black" points="3.75,-110.5 3.75,-146.5 161.25,-146.5 161.25,-110.5 3.75,-110.5"/>
<text text-anchor="middle" x="18.5" y="-123.7" font-family="Times New Roman,serif" font-size="14.00">x2</text>
<polyline fill="none" stroke="black" points="33.25,-111 33.25,-146.5"/>
<text text-anchor="middle" x="64.88" y="-123.7" font-family="Times New Roman,serif" font-size="14.00">data: 0.0</text>
<polyline fill="none" stroke="black" points="96.5,-111 96.5,-146.5"/>
<text text-anchor="middle" x="128.88" y="-123.7" font-family="Times New Roman,serif" font-size="14.00">grad: 0.5</text>
</g>
<!-- 2781965773008&#45;&gt;2781973838928* -->
<g id="edge15" class="edge">
<title>2781965773008&#45;&gt;2781973838928*</title>
<path fill="none" stroke="black" d="M161.55,-128.5C171.11,-128.5 180.52,-128.5 189.1,-128.5"/>
<polygon fill="black" stroke="black" points="189.08,-132 199.08,-128.5 189.08,-125 189.08,-132"/>
</g>
<!-- 2781973838544 -->
<g id="node17" class="node">
<title>2781973838544</title>
<polygon fill="none" stroke="black" points="1569,-81.5 1569,-117.5 1744.5,-117.5 1744.5,-81.5 1569,-81.5"/>
<text text-anchor="middle" x="1580.38" y="-94.7" font-family="Times New Roman,serif" font-size="14.00">1</text>
<polyline fill="none" stroke="black" points="1591.75,-82 1591.75,-117.5"/>
<text text-anchor="middle" x="1623.38" y="-94.7" font-family="Times New Roman,serif" font-size="14.00">data: 1.0</text>
<polyline fill="none" stroke="black" points="1655,-82 1655,-117.5"/>
<text text-anchor="middle" x="1699.75" y="-94.7" font-family="Times New Roman,serif" font-size="14.00">grad: &#45;0.1036</text>
</g>
<!-- 2781973838544&#45;&gt;2781973958160+ -->
<g id="edge21" class="edge">
<title>2781973838544&#45;&gt;2781973958160+</title>
<path fill="none" stroke="black" d="M1744.56,-114.5C1756.07,-116.49 1767.32,-118.43 1777.31,-120.16"/>
<polygon fill="black" stroke="black" points="1776.45,-123.56 1786.9,-121.82 1777.64,-116.66 1776.45,-123.56"/>
</g>
<!-- 2781973834512 -->
<g id="node18" class="node">
<title>2781973834512</title>
<polygon fill="none" stroke="black" points="2645.25,-135.5 2645.25,-171.5 2817.75,-171.5 2817.75,-135.5 2645.25,-135.5"/>
<text text-anchor="middle" x="2657.38" y="-148.7" font-family="Times New Roman,serif" font-size="14.00">L</text>
<polyline fill="none" stroke="black" points="2669.5,-136 2669.5,-171.5"/>
<text text-anchor="middle" x="2711.25" y="-148.7" font-family="Times New Roman,serif" font-size="14.00">data: 0.7071</text>
<polyline fill="none" stroke="black" points="2753,-136 2753,-171.5"/>
<text text-anchor="middle" x="2785.38" y="-148.7" font-family="Times New Roman,serif" font-size="14.00">grad: 1.0</text>
</g>
<!-- 2781973834512* -->
<g id="node19" class="node">
<title>2781973834512*</title>
<ellipse fill="none" stroke="black" cx="2582.25" cy="-153.5" rx="27" ry="18"/>
<text text-anchor="middle" x="2582.25" y="-148.45" font-family="Times New Roman,serif" font-size="14.00">*</text>
</g>
<!-- 2781973834512*&#45;&gt;2781973834512 -->
<g id="edge6" class="edge">
<title>2781973834512*&#45;&gt;2781973834512</title>
<path fill="none" stroke="black" d="M2609.58,-153.5C2616.65,-153.5 2624.74,-153.5 2633.3,-153.5"/>
<polygon fill="black" stroke="black" points="2633.27,-157 2643.27,-153.5 2633.27,-150 2633.27,-157"/>
</g>
<!-- 2781973838608 -->
<g id="node20" class="node">
<title>2781973838608</title>
<polygon fill="none" stroke="black" points="1566.75,-191.5 1566.75,-227.5 1746.75,-227.5 1746.75,-191.5 1566.75,-191.5"/>
<text text-anchor="middle" x="1580.38" y="-204.7" font-family="Times New Roman,serif" font-size="14.00">&#45;1</text>
<polyline fill="none" stroke="black" points="1594,-192 1594,-227.5"/>
<text text-anchor="middle" x="1627.88" y="-204.7" font-family="Times New Roman,serif" font-size="14.00">data: &#45;1.0</text>
<polyline fill="none" stroke="black" points="1661.75,-192 1661.75,-227.5"/>
<text text-anchor="middle" x="1704.25" y="-204.7" font-family="Times New Roman,serif" font-size="14.00">grad: 0.1464</text>
</g>
<!-- 2781973838608&#45;&gt;2781973838736+ -->
<g id="edge27" class="edge">
<title>2781973838608&#45;&gt;2781973838736+</title>
<path fill="none" stroke="black" d="M1746.83,-193.54C1757.53,-191.62 1767.94,-189.75 1777.26,-188.08"/>
<polygon fill="black" stroke="black" points="1777.69,-191.56 1786.92,-186.35 1776.46,-184.67 1777.69,-191.56"/>
</g>
<!-- 2781973834128 -->
<g id="node21" class="node">
<title>2781973834128</title>
<polygon fill="none" stroke="black" points="2331,-112.5 2331,-148.5 2519.25,-148.5 2519.25,-112.5 2331,-112.5"/>
<text text-anchor="middle" x="2340.88" y="-125.7" font-family="Times New Roman,serif" font-size="14.00"> </text>
<polyline fill="none" stroke="black" points="2350.75,-113 2350.75,-148.5"/>
<text text-anchor="middle" x="2392.5" y="-125.7" font-family="Times New Roman,serif" font-size="14.00">data: 0.1464</text>
<polyline fill="none" stroke="black" points="2434.25,-113 2434.25,-148.5"/>
<text text-anchor="middle" x="2476.75" y="-125.7" font-family="Times New Roman,serif" font-size="14.00">grad: 4.8284</text>
</g>
<!-- 2781973834128&#45;&gt;2781973834512* -->
<g id="edge16" class="edge">
<title>2781973834128&#45;&gt;2781973834512*</title>
<path fill="none" stroke="black" d="M2519.49,-144.34C2528.17,-145.63 2536.57,-146.88 2544.23,-148.01"/>
<polygon fill="black" stroke="black" points="2543.7,-151.47 2554.11,-149.48 2544.73,-144.55 2543.7,-151.47"/>
</g>
<!-- 2781973834128**&#45;1.0&#45;&gt;2781973834128 -->
<g id="edge7" class="edge">
<title>2781973834128**&#45;1.0&#45;&gt;2781973834128</title>
<path fill="none" stroke="black" d="M2236.11,-127.12C2258.57,-127.52 2289.25,-128.07 2319.31,-128.61"/>
<polygon fill="black" stroke="black" points="2319.2,-132.11 2329.26,-128.79 2319.33,-125.11 2319.2,-132.11"/>
</g>
<!-- 2781973838672 -->
<g id="node23" class="node">
<title>2781973838672</title>
<polygon fill="none" stroke="black" points="1260.75,-136.5 1260.75,-172.5 1435.5,-172.5 1435.5,-136.5 1260.75,-136.5"/>
<text text-anchor="middle" x="1270.62" y="-149.7" font-family="Times New Roman,serif" font-size="14.00"> </text>
<polyline fill="none" stroke="black" points="1280.5,-137 1280.5,-172.5"/>
<text text-anchor="middle" x="1322.25" y="-149.7" font-family="Times New Roman,serif" font-size="14.00">data: 1.7627</text>
<polyline fill="none" stroke="black" points="1364,-137 1364,-172.5"/>
<text text-anchor="middle" x="1399.75" y="-149.7" font-family="Times New Roman,serif" font-size="14.00">grad: 0.25</text>
</g>
<!-- 2781973838672&#45;&gt;2781973833936exp -->
<g id="edge28" class="edge">
<title>2781973838672&#45;&gt;2781973833936exp</title>
<path fill="none" stroke="black" d="M1435.86,-154.5C1444.17,-154.5 1452.26,-154.5 1459.7,-154.5"/>
<polygon fill="black" stroke="black" points="1459.65,-158 1469.65,-154.5 1459.65,-151 1459.65,-158"/>
</g>
<!-- 2781973838672*&#45;&gt;2781973838672 -->
<g id="edge8" class="edge">
<title>2781973838672*&#45;&gt;2781973838672</title>
<path fill="none" stroke="black" d="M1224.93,-154.5C1232.13,-154.5 1240.38,-154.5 1249.13,-154.5"/>
<polygon fill="black" stroke="black" points="1248.91,-158 1258.91,-154.5 1248.91,-151 1248.91,-158"/>
</g>
<!-- 2781973837136 -->
<g id="node25" class="node">
<title>2781973837136</title>
<polygon fill="none" stroke="black" points="945.75,-109.5 945.75,-145.5 1134.75,-145.5 1134.75,-109.5 945.75,-109.5"/>
<text text-anchor="middle" x="966.12" y="-122.7" font-family="Times New Roman,serif" font-size="14.00">logit</text>
<polyline fill="none" stroke="black" points="986.5,-110 986.5,-145.5"/>
<text text-anchor="middle" x="1028.25" y="-122.7" font-family="Times New Roman,serif" font-size="14.00">data: 0.8814</text>
<polyline fill="none" stroke="black" points="1070,-110 1070,-145.5"/>
<text text-anchor="middle" x="1102.38" y="-122.7" font-family="Times New Roman,serif" font-size="14.00">grad: 0.5</text>
</g>
<!-- 2781973837136&#45;&gt;2781973838672* -->
<g id="edge13" class="edge">
<title>2781973837136&#45;&gt;2781973838672*</title>
<path fill="none" stroke="black" d="M1134.85,-143.75C1143.73,-145.29 1152.33,-146.79 1160.14,-148.14"/>
<polygon fill="black" stroke="black" points="1159.4,-151.57 1169.85,-149.83 1160.6,-144.67 1159.4,-151.57"/>
</g>
<!-- 2781973837136+&#45;&gt;2781973837136 -->
<g id="edge9" class="edge">
<title>2781973837136+&#45;&gt;2781973837136</title>
<path fill="none" stroke="black" d="M910.13,-127.5C917.26,-127.5 925.43,-127.5 934.12,-127.5"/>
<polygon fill="black" stroke="black" points="933.86,-131 943.86,-127.5 933.86,-124 933.86,-131"/>
</g>
<!-- 2781973838736 -->
<g id="node27" class="node">
<title>2781973838736</title>
<polygon fill="none" stroke="black" points="2106.75,-163.5 2106.75,-199.5 2295,-199.5 2295,-163.5 2106.75,-163.5"/>
<text text-anchor="middle" x="2116.62" y="-176.7" font-family="Times New Roman,serif" font-size="14.00"> </text>
<polyline fill="none" stroke="black" points="2126.5,-164 2126.5,-199.5"/>
<text text-anchor="middle" x="2168.25" y="-176.7" font-family="Times New Roman,serif" font-size="14.00">data: 4.8284</text>
<polyline fill="none" stroke="black" points="2210,-164 2210,-199.5"/>
<text text-anchor="middle" x="2252.5" y="-176.7" font-family="Times New Roman,serif" font-size="14.00">grad: 0.1464</text>
</g>
<!-- 2781973838736&#45;&gt;2781973834512* -->
<g id="edge23" class="edge">
<title>2781973838736&#45;&gt;2781973834512*</title>
<path fill="none" stroke="black" d="M2295.28,-174.93C2358.51,-170.44 2443.92,-164.27 2519.25,-158.5 2527.14,-157.9 2535.58,-157.23 2543.63,-156.58"/>
<polygon fill="black" stroke="black" points="2543.81,-160.08 2553.5,-155.79 2543.25,-153.1 2543.81,-160.08"/>
</g>
<!-- 2781973838736+&#45;&gt;2781973838736 -->
<g id="edge10" class="edge">
<title>2781973838736+&#45;&gt;2781973838736</title>
<path fill="none" stroke="black" d="M1842.39,-181.5C1893.61,-181.5 2009.05,-181.5 2094.97,-181.5"/>
<polygon fill="black" stroke="black" points="2094.84,-185 2104.84,-181.5 2094.84,-178 2094.84,-185"/>
</g>
</g>
</svg>
